<svg version="1.1" id="layer-1" xmlns="http://www.w3.org/2000/svg" xmlns:xlink="http://www.w3.org/1999/xlink" x="0px" y="0px"
	 viewBox="0 0 105 36.2" style="enable-background:new 0 0 105 36.2;" xml:space="preserve">
<style type="text/css">.st0{fill:url(#SVGID_1_);}</style>
<linearGradient id="SVGID_1_" gradientUnits="userSpaceOnUse" x1="1.109" y1="18.1086" x2="103.934" y2="18.1086">
	<stop  offset="0" style="stop-color:#319197"/>
	<stop  offset="0.1598" style="stop-color:#409EA2"/>
	<stop  offset="0.4641" style="stop-color:#66BFBF"/>
	<stop  offset="0.5425" style="stop-color:#7FC4C4"/>
	<stop  offset="0.6787" style="stop-color:#A5CCCC"/>
	<stop  offset="0.8048" style="stop-color:#C0D2D2"/>
	<stop  offset="0.9159" style="stop-color:#D1D6D6"/>
	<stop  offset="1" style="stop-color:#D7D7D7"/>
</linearGradient>
<path class="st0" d="M102.9,17c-1-2.3-4.3-5.3-8.8-5.8c-7.1-0.8-15.5,4.2-21.7,7.2c-2.7,1.3-4.6,2.2-8.6,2.2
	c-7.8,0-9.9-12.6-14.2-17.2c-1-1-2.1-1.9-3.4-2.5C44.9,0.3,43.6,0,41.9,0c-1.5,0-2.8,0.2-4.1,0.6c-10.3,3-11.5,25.9-29.1,26.3
	c-3,0.1-4.9-0.3-7.6-1.1c0.5,1,2,2.7,3.9,3.8c2,1.2,5.1,1.8,6.6,1.9c5.8,0.2,13.1-1.4,19.8-8.1c3-3,5.5-7.3,10.1-7.3
	c8.8,0,8.9,10.9,13.9,16.6c0.9,1.1,2,2,3.4,2.6c1.3,0.6,2.8,0.9,4.6,0.9c1.5,0,2.9-0.3,4.1-0.8c8.8-3.7,12.1-11.3,21.4-17.8
	c0.6-0.4,2.5-1.6,4.9-1.6c8,0,10,7.5,10,7.5S104.3,20.3,102.9,17z"/>
<g>
	<path d="M7.3,34c-2.4-1.4-4.2-3.4-5.4-6C0.6,25.4,0,22.4,0,18.9s0.6-6.5,1.9-9.1c1.3-2.6,3.1-4.6,5.4-6s5.1-2.1,8.3-2.1
		c2.7,0,5,0.5,7,1.5C24,3.8,25,4.7,25.9,5.7l-2.8,4.6c-1.7-2.6-4.1-3.2-7.4-3.2c-2.8,0-5,1-6.5,3c-1.5,2-2.3,4.9-2.3,8.8
		c0,3.8,0.7,6.7,2.2,8.7c1.5,2,3.6,3,6.4,3c3.5,0,6-1.3,7.6-3.8l3.9,3.5c-1,1.9-2.4,3.3-4.4,4.4c-2,1-4.4,1.5-7.1,1.5
		C12.4,36.2,9.7,35.5,7.3,34z"/>
	<path d="M52.8,25.9H36.1c0.5,3.4,2.5,5.1,5.9,5.1c1.4,0,2.6-0.2,3.7-0.7c1-0.5,2.1-1.3,3-2.4l3.3,3.2c-0.9,1.5-2.3,2.8-4.2,3.7
		s-3.9,1.4-6.2,1.4c-3.7,0-6.7-1.1-8.7-3.3s-3.1-5.2-3.1-9.1c0-3.9,1-7,3.1-9.2c2.1-2.2,5-3.4,8.7-3.4c3.5,0,6.3,1.1,8.2,3.3
		c2,2.2,3,5.3,3,9.2V25.9z M46.8,21.5c0-1.6-0.5-2.9-1.4-3.9c-0.9-0.9-2.2-1.4-3.9-1.4c-1.5,0-2.7,0.5-3.6,1.5
		c-0.9,1-1.5,2.3-1.8,4.1h10.8V21.5z"/>
	<path d="M58.6,34.5c-1.1-1.1-1.6-2.7-1.6-4.8V0.1h6.1v29.8c0,0.7,0.2,1.2,0.6,1.6c0.4,0.3,0.9,0.5,1.7,0.5c0.7,0,1.6-0.2,2.7-0.6
		l0.9,3.3c-1.4,1.1-3.3,1.6-5.7,1.6C61.3,36.2,59.7,35.6,58.6,34.5z"/>
	<path d="M72.7,7.6c-0.6-0.6-0.9-1.4-0.9-2.3s0.3-1.8,0.9-2.3c0.6-0.6,1.5-0.9,2.5-0.9c1.1,0,1.9,0.3,2.6,0.9c0.6,0.6,1,1.4,1,2.3
		S78.5,7,77.9,7.6c-0.6,0.6-1.5,0.9-2.6,0.9C74.2,8.5,73.4,8.2,72.7,7.6z"/>
	<rect x="72.2" y="11.7" width="6.1" height="24"/>
	<path d="M87.3,35.2c-1.2-0.7-2.2-1.6-2.9-2.7c-0.7-1.2-1.1-2.5-1.1-3.9c0-2.5,1-4.4,2.9-5.7c2-1.3,4.7-2,8.4-2h3.7v-1
		c0-1.3-0.4-2.3-1.1-3C96.4,16.2,95.4,16,94,16c-1.3,0-2.8,0.3-3.8,0.9c-0.9,0.5-2,1.2-3.3,2.2L84,15.2c1.3-1.2,2.9-2.2,4.7-3
		c1.8-0.7,3.6-1.1,5.6-1.1c3.2,0,5.7,0.8,7.5,2.3s2.7,3.6,2.7,6.2v10.9c0,0.7,0.1,1.6,0.2,2.6c0.1,1,0.2,1.8,0.4,2.4h-5.4
		c-0.2-0.4-0.3-0.8-0.4-1.2c-0.1-0.4-0.2-1-0.2-1.7h-0.1c-1.8,2.2-4.3,3.4-7.3,3.4C89.9,36.2,88.5,35.8,87.3,35.2z M96.8,30.4
		c1-0.8,1.5-1.8,1.5-3V25h-3.9c-1.6,0-2.9,0.3-3.8,0.9c-0.9,0.6-1.3,1.5-1.3,2.6c0,1,0.3,1.7,1,2.2c0.7,0.5,1.6,0.8,2.7,0.8
		C94.5,31.5,95.8,31.2,96.8,30.4z"/>
</g>
</svg>
